<svg width="1292" height="531" viewBox="0 0 1292 531" fill="none" xmlns="http://www.w3.org/2000/svg">
<path d="M555.5 82C555.5 103.102 536.195 120.5 512 120.5C487.805 120.5 468.5 103.102 468.5 82C468.5 60.8982 487.805 43.5 512 43.5C536.195 43.5 555.5 60.8982 555.5 82Z" fill="white" stroke="black" stroke-width="3"/>
<circle cx="409.5" cy="100.5" r="29" fill="white" stroke="black" stroke-width="3"/>
<path d="M359.5 118C359.5 120.95 357.753 123.789 354.588 125.954C351.43 128.115 346.984 129.5 342 129.5C337.016 129.5 332.57 128.115 329.412 125.954C326.247 123.789 324.5 120.95 324.5 118C324.5 115.05 326.247 112.211 329.412 110.046C332.57 107.885 337.016 106.5 342 106.5C346.984 106.5 351.43 107.885 354.588 110.046C357.753 112.211 359.5 115.05 359.5 118Z" fill="white" stroke="black" stroke-width="3"/>
<mask id="path-4-inside-1_147_2" fill="white">
<path fill-rule="evenodd" clip-rule="evenodd" d="M966.751 247.122C991.74 267.673 1030.54 280.872 1074.1 280.872C1134.66 280.872 1186.01 255.365 1203.86 220.056C1255.38 207.434 1292 175.227 1292 137.488C1292 97.2365 1250.34 63.2782 1193.38 52.6634C1168.85 29.1976 1127.32 13.7711 1080.23 13.7711C1049.27 13.7711 1020.72 20.4374 997.815 31.6716C973.628 17.5783 941.606 9 906.486 9C869.794 9 836.484 18.3633 811.957 33.5968C789.575 23.2129 762.134 17.0995 732.486 17.0995C657.107 17.0995 596 56.6173 596 105.365C596 130.73 612.545 153.597 639.036 169.697C635.974 177.041 634.341 184.764 634.341 192.735C634.341 241.482 695.448 281 770.827 281C802.442 281 831.547 274.048 854.685 262.38C865.878 264.735 877.731 266 890 266C918.98 266 945.639 258.945 966.751 247.122Z"/>
</mask>
<path fill-rule="evenodd" clip-rule="evenodd" d="M966.751 247.122C991.74 267.673 1030.54 280.872 1074.1 280.872C1134.66 280.872 1186.01 255.365 1203.86 220.056C1255.38 207.434 1292 175.227 1292 137.488C1292 97.2365 1250.34 63.2782 1193.38 52.6634C1168.85 29.1976 1127.32 13.7711 1080.23 13.7711C1049.27 13.7711 1020.72 20.4374 997.815 31.6716C973.628 17.5783 941.606 9 906.486 9C869.794 9 836.484 18.3633 811.957 33.5968C789.575 23.2129 762.134 17.0995 732.486 17.0995C657.107 17.0995 596 56.6173 596 105.365C596 130.73 612.545 153.597 639.036 169.697C635.974 177.041 634.341 184.764 634.341 192.735C634.341 241.482 695.448 281 770.827 281C802.442 281 831.547 274.048 854.685 262.38C865.878 264.735 877.731 266 890 266C918.98 266 945.639 258.945 966.751 247.122Z" fill="white"/>
<path d="M966.751 247.122L968.656 244.805L967.073 243.503L965.285 244.504L966.751 247.122ZM1203.86 220.056L1203.14 217.142L1201.8 217.471L1201.18 218.703L1203.86 220.056ZM1193.38 52.6634L1191.31 54.8312L1191.95 55.4489L1192.83 55.6126L1193.38 52.6634ZM997.815 31.6716L996.305 34.2637L997.694 35.0729L999.137 34.365L997.815 31.6716ZM811.957 33.5968L810.695 36.3182L812.164 36.9998L813.54 36.1452L811.957 33.5968ZM639.036 169.697L641.805 170.851L642.797 168.472L640.594 167.133L639.036 169.697ZM854.685 262.38L855.303 259.444L854.274 259.228L853.335 259.701L854.685 262.38ZM964.845 249.439C990.476 270.518 1029.99 283.872 1074.1 283.872V277.872C1031.08 277.872 993.005 264.829 968.656 244.805L964.845 249.439ZM1074.1 283.872C1135.25 283.872 1187.97 258.135 1206.54 221.409L1201.18 218.703C1184.05 252.594 1134.07 277.872 1074.1 277.872V283.872ZM1204.57 222.97C1256.55 210.234 1295 177.343 1295 137.488H1289C1289 173.111 1254.2 204.634 1203.14 217.142L1204.57 222.97ZM1295 137.488C1295 116.252 1284 96.9242 1265.99 81.6724C1247.98 66.4251 1222.82 55.0976 1193.93 49.7142L1192.83 55.6126C1220.9 60.844 1245.05 71.803 1262.11 86.2514C1279.17 100.695 1289 118.472 1289 137.488H1295ZM1195.45 50.4955C1170.24 26.3721 1127.9 10.7711 1080.23 10.7711V16.7711C1126.75 16.7711 1167.46 32.0231 1191.31 54.8312L1195.45 50.4955ZM1080.23 10.7711C1048.85 10.7711 1019.84 17.5244 996.494 28.9783L999.137 34.365C1021.59 23.3505 1049.68 16.7711 1080.23 16.7711V10.7711ZM999.326 29.0795C974.626 14.6873 942.07 6 906.486 6V12C941.143 12 972.631 20.4693 996.305 34.2637L999.326 29.0795ZM906.486 6C869.313 6 835.439 15.481 810.374 31.0483L813.54 36.1452C837.529 21.2457 870.275 12 906.486 12V6ZM813.22 30.8754C790.41 20.2931 762.534 14.0995 732.486 14.0995V20.0995C761.735 20.0995 788.74 26.1326 810.695 36.3182L813.22 30.8754ZM732.486 14.0995C694.305 14.0995 659.599 24.1021 634.347 40.4327C609.125 56.7439 593 79.6328 593 105.365H599C599 82.3494 613.429 61.1056 637.605 45.471C661.751 29.8558 695.288 20.0995 732.486 20.0995V14.0995ZM593 105.365C593 132.146 610.459 155.839 637.478 172.26L640.594 167.133C614.631 151.354 599 129.314 599 105.365H593ZM636.267 168.542C633.061 176.232 631.341 184.346 631.341 192.735H637.341C637.341 185.182 638.887 177.85 641.805 170.851L636.267 168.542ZM631.341 192.735C631.341 218.467 647.465 241.356 672.687 257.667C697.94 273.997 732.646 284 770.827 284V278C733.629 278 700.092 268.244 675.946 252.629C651.769 236.994 637.341 215.75 637.341 192.735H631.341ZM770.827 284C802.865 284 832.44 276.958 856.036 265.059L853.335 259.701C830.654 271.139 802.019 278 770.827 278V284ZM890 263C877.936 263 866.29 261.757 855.303 259.444L854.068 265.316C865.465 267.714 877.525 269 890 269V263ZM965.285 244.504C944.655 256.057 918.507 263 890 263V269C919.454 269 946.623 261.832 968.217 249.739L965.285 244.504Z" fill="black" mask="url(#path-4-inside-1_147_2)"/>
<path d="M742.624 109.608C743.776 109.608 744.576 110.6 745.024 112.584C745.024 113.736 743.008 115.336 738.976 117.384C733.984 121.736 730.272 129.224 727.84 139.848V141.576C733.408 138.824 737.408 137.16 739.84 136.584C740.608 136.584 741.536 137.256 742.624 138.6V140.424C742.624 141.128 739.808 142.536 734.176 144.648C729.952 146.952 727.84 148.264 727.84 148.584V149.448C727.84 153.032 730.144 156.136 734.752 158.76L738.016 159.336C740.128 159.336 743.264 158.024 747.424 155.4H748.576C749.92 156.04 750.592 156.968 750.592 158.184V158.76C746.624 162.92 742.24 165 737.44 165C730.592 165 725.6 160.392 722.464 151.176L716.416 152.424C713.472 151.976 712 151.016 712 149.544C712 148.072 712.864 147.016 714.592 146.376L716.8 146.76C720.128 145.8 721.792 145.096 721.792 144.648C721.792 133.768 725.92 123.688 734.176 114.408C738.336 111.208 741.152 109.608 742.624 109.608ZM767.554 132.648C772.994 133.096 775.714 135.752 775.714 140.616L775.906 141.864L775.714 156.84C775.714 158.568 776.706 160.904 778.69 163.848V164.04C778.178 165.896 777.25 166.824 775.906 166.824C771.938 165.16 769.954 161.64 769.954 156.264V155.016L769.666 154.824L769.954 154.44V154.248L770.242 141C770.242 139.144 769.442 138.216 767.842 138.216H766.69C763.49 139.496 761.89 146.504 761.89 159.24C761.89 163.656 760.77 165.864 758.53 165.864C756.802 165.864 755.906 164.776 755.842 162.6V153C755.842 140.584 756.93 134.376 759.106 134.376L760.066 134.088L762.082 134.376C763.81 133.224 765.634 132.648 767.554 132.648ZM797.155 128.136C800.099 128.136 801.571 129.544 801.571 132.36C801.955 132.36 802.147 132.84 802.147 133.8H802.531L802.147 136.584L802.531 155.976L801.955 171.336C807.715 171.336 811.587 175.56 813.571 184.008C813.571 185.736 812.387 186.728 810.019 186.984C808.931 186.984 807.715 184.584 806.371 179.784C805.091 177.928 803.619 177 801.955 177H801.571C799.523 190.632 797.731 197.448 796.195 197.448C794.339 200.84 791.651 202.536 788.131 202.536C782.947 201.32 780.355 198.728 780.355 194.76V194.184C780.355 188.168 784.643 181.64 793.219 174.6L796.195 172.776L796.579 162.408V160.008H796.195C794.019 162.76 791.939 164.136 789.955 164.136H789.379C784.963 164.136 782.435 160.744 781.795 153.96V151.848C781.795 143.656 784.803 136.552 790.819 130.536C792.675 128.936 794.787 128.136 797.155 128.136ZM787.555 150.6V155.208C787.811 157.32 788.291 158.376 788.995 158.376H789.955C791.747 158.376 793.955 151.784 796.579 138.6V133.8C792.739 133.8 789.731 139.4 787.555 150.6ZM786.019 194.376C786.275 195.976 787.171 196.776 788.707 196.776C791.779 196.776 793.987 191.304 795.331 180.36H794.755C788.931 185.416 786.019 190.088 786.019 194.376ZM813.046 112.104C814.838 112.744 815.734 113.736 815.734 115.08L816.694 151.656V163.464C816.694 165.64 815.766 166.728 813.91 166.728H812.662C811.51 165.96 810.934 165.064 810.934 164.04V152.904L810.07 114.888C810.07 113.288 811.062 112.36 813.046 112.104ZM824.757 114.984C827.189 115.496 828.405 116.584 828.405 118.248C827.765 120.04 826.741 120.936 825.333 120.936C822.965 120.488 821.781 119.304 821.781 117.384C822.421 115.784 823.413 114.984 824.757 114.984ZM828.405 128.424C829.429 128.424 830.293 129.352 830.997 131.208L830.133 138.024V142.536C830.133 147.784 831.029 154.664 832.821 163.176C832.181 164.392 831.093 165 829.557 165C826.933 165 825.205 157.32 824.373 141.96V138.6C824.373 131.816 825.717 128.424 828.405 128.424ZM857.058 126.12C858.786 126.12 859.97 129.032 860.609 134.856C859.97 136.456 858.914 137.256 857.442 137.256C856.418 137.064 855.394 135.88 854.37 133.704L852.642 133.128C849.634 133.128 846.914 135.112 844.482 139.08V139.944C844.482 140.904 848.994 142.504 858.018 144.744C861.794 146.984 863.682 149.704 863.682 152.904C863.682 158.152 859.458 162.632 851.01 166.344L847.458 166.92C842.082 166.344 839.394 163.656 839.394 158.856V158.568C839.394 157.032 840.386 156.136 842.37 155.88C843.906 155.88 844.93 157.48 845.442 160.68L846.21 161.256H847.842C851.49 161.256 854.882 158.76 858.018 153.768V152.52C858.018 150.6 853.826 148.808 845.442 147.144C841.026 145.352 838.818 142.856 838.818 139.656C838.818 135.496 842.306 131.592 849.282 127.944C852.354 127.56 854.946 126.952 857.058 126.12ZM871.231 112.008C873.023 112.008 873.919 114.184 873.919 118.536L875.071 135.048H875.455L880.255 133.224C885.631 133.224 888.895 138.728 890.047 149.736C890.495 152.872 890.719 157.48 890.719 163.56V171.336C890.719 173.768 889.823 174.984 888.031 174.984H887.647C885.919 174.728 885.055 173.8 885.055 172.2V163.176C885.055 148.712 883.647 140.712 880.831 139.176H880.255C878.335 139.176 876.927 142.12 876.031 148.008V153.384C876.031 162.984 875.231 167.784 873.631 167.784L871.807 167.976C870.015 167.976 869.119 165.32 869.119 160.008C869.311 154.376 869.695 149.768 870.271 146.184L868.255 114.6C868.255 112.936 869.247 112.072 871.231 112.008ZM949.178 101.928H950.714C961.146 101.928 967.834 105.704 970.778 113.256L971.066 116.328V117.288C971.066 124.712 966.554 131.592 957.53 137.928C955.354 138.568 954.266 139.272 954.266 140.04C956.826 149.832 958.106 157.832 958.106 164.04V165.288C958.106 167.848 957.05 169.128 954.938 169.128C953.338 168.936 952.538 168.136 952.538 166.728V164.328C952.538 156.968 951.194 148.968 948.506 140.328C943.322 139.88 940.442 138.472 939.866 136.104V135.528C939.866 134.376 940.762 133.48 942.554 132.84L946.778 134.28V134.088C944.602 124.616 943.514 118.216 943.514 114.888C943.514 113.032 944.602 112.104 946.778 112.104C948.762 112.104 949.754 115.496 949.754 122.28L952.538 133.704C957.146 132.168 960.73 129.16 963.29 124.68C964.634 122.12 965.306 119.848 965.306 117.864V116.616C965.306 111.368 960.826 108.392 951.866 107.688H947.93C939.162 108.648 934.778 110.728 934.778 113.928V114.504C934.778 115.464 935.29 116.968 936.314 119.016C936.314 120.424 935.194 121.32 932.954 121.704C930.394 120.488 929.114 117.992 929.114 114.216C929.114 107.176 935.802 103.08 949.178 101.928ZM979.617 115.944C981.153 115.944 982.145 118.344 982.593 123.144L982.977 128.328C982.977 132.232 982.273 142.408 980.865 158.856H981.441V159.144L981.825 158.856H982.593L993.825 159.72H994.593L999.393 158.28H1000.07C1001.09 158.92 1001.79 159.816 1002.18 160.968C1002.18 163.4 999.457 164.904 994.017 165.48L984.225 164.52H982.401L977.793 165.768C976.065 165.128 975.201 164.104 975.201 162.696L977.217 129.768V128.328L976.641 118.728C976.641 117.128 977.633 116.2 979.617 115.944ZM1034.19 109.608C1035.34 109.608 1036.14 110.6 1036.59 112.584C1036.59 113.736 1034.57 115.336 1030.54 117.384C1025.55 121.736 1021.83 129.224 1019.4 139.848V141.576C1024.97 138.824 1028.97 137.16 1031.4 136.584C1032.17 136.584 1033.1 137.256 1034.19 138.6V140.424C1034.19 141.128 1031.37 142.536 1025.74 144.648C1021.51 146.952 1019.4 148.264 1019.4 148.584V149.448C1019.4 153.032 1021.71 156.136 1026.31 158.76L1029.58 159.336C1031.69 159.336 1034.83 158.024 1038.99 155.4H1040.14C1041.48 156.04 1042.15 156.968 1042.15 158.184V158.76C1038.19 162.92 1033.8 165 1029 165C1022.15 165 1017.16 160.392 1014.03 151.176L1007.98 152.424C1005.03 151.976 1003.56 151.016 1003.56 149.544C1003.56 148.072 1004.43 147.016 1006.15 146.376L1008.36 146.76C1011.69 145.8 1013.35 145.096 1013.35 144.648C1013.35 133.768 1017.48 123.688 1025.74 114.408C1029.9 111.208 1032.71 109.608 1034.19 109.608ZM1066.6 107.976L1069 107.208C1071.18 107.208 1072.27 110.088 1072.27 115.848L1075.24 138.024L1075.63 138.408L1086.67 134.376C1088.14 134.376 1088.94 135.496 1089.07 137.736C1089.07 139.4 1085 141.416 1076.88 143.784L1076.49 143.976V144.36C1076.49 145.704 1078.6 152.712 1082.83 165.384V165.576C1082.83 166.792 1081.84 167.816 1079.85 168.648C1078 168.648 1076.78 166.44 1076.2 162.024C1074.73 158.824 1072.94 153.544 1070.83 146.184H1070.44C1062.06 147.912 1057.87 149.384 1057.87 150.6C1053.26 160.584 1049.77 165.576 1047.4 165.576C1046.06 165.576 1045.26 164.712 1045 162.984C1045 161.448 1046.7 158.44 1050.09 153.96L1051.63 150.6H1049.23L1047.4 150.984C1045.04 150.408 1043.85 149.192 1043.85 147.336C1044.81 145.096 1046.22 143.976 1048.08 143.976L1050.48 144.936C1054.06 144.936 1055.85 143.624 1055.85 141C1059.12 133.32 1062.7 122.312 1066.6 107.976ZM1067.47 125.448L1061.8 142.536C1067.05 141.512 1069.68 140.52 1069.68 139.56C1068.72 130.152 1067.98 125.448 1067.47 125.448ZM1121.01 108.168H1121.97C1123.76 108.168 1124.78 109.224 1125.04 111.336C1125.04 113.192 1122.51 114.12 1117.45 114.12C1109.33 117.192 1103.85 121.672 1101.04 127.56L1100.37 130.344V130.92C1100.37 133.736 1102.25 135.144 1106.03 135.144L1116.59 134.568C1123.69 134.568 1128.49 138.024 1130.99 144.936L1131.57 148.296C1131.57 154.952 1126.19 161.032 1115.44 166.536C1112.24 167.432 1109.42 168.04 1106.99 168.36C1100.46 168.36 1095.85 164.68 1093.17 157.32C1092.4 154.824 1092.01 152.296 1092.01 149.736C1092.01 148.968 1092.62 148.168 1093.84 147.336H1094.99C1096.97 147.336 1097.97 149.864 1097.97 154.92C1099.63 159.912 1102.25 162.408 1105.84 162.408H1108.43C1113.61 162.408 1118.73 159.4 1123.79 153.384C1125.13 151.464 1125.81 149.384 1125.81 147.144C1125.81 144.008 1123.34 141.8 1118.41 140.52H1118.03L1105.45 140.808C1098.48 139.976 1094.99 137.096 1094.99 132.168L1094.61 130.92C1094.61 124.328 1099.53 117.928 1109.39 111.72C1113.68 109.352 1117.55 108.168 1121.01 108.168ZM1164.41 109.608C1165.56 109.608 1166.36 110.6 1166.81 112.584C1166.81 113.736 1164.79 115.336 1160.76 117.384C1155.77 121.736 1152.05 129.224 1149.62 139.848V141.576C1155.19 138.824 1159.19 137.16 1161.62 136.584C1162.39 136.584 1163.32 137.256 1164.41 138.6V140.424C1164.41 141.128 1161.59 142.536 1155.96 144.648C1151.73 146.952 1149.62 148.264 1149.62 148.584V149.448C1149.62 153.032 1151.93 156.136 1156.53 158.76L1159.8 159.336C1161.91 159.336 1165.05 158.024 1169.21 155.4H1170.36C1171.7 156.04 1172.37 156.968 1172.37 158.184V158.76C1168.41 162.92 1164.02 165 1159.22 165C1152.37 165 1147.38 160.392 1144.25 151.176L1138.2 152.424C1135.25 151.976 1133.78 151.016 1133.78 149.544C1133.78 148.072 1134.65 147.016 1136.37 146.376L1138.58 146.76C1141.91 145.8 1143.57 145.096 1143.57 144.648C1143.57 133.768 1147.7 123.688 1155.96 114.408C1160.12 111.208 1162.93 109.608 1164.41 109.608ZM1179.35 99.816C1181.08 100.52 1181.94 101.544 1181.94 102.888C1182.46 121.064 1183.19 134.184 1184.15 142.248C1183.51 143.848 1182.58 144.648 1181.37 144.648C1179 144.648 1177.82 140.84 1177.82 133.224C1177.24 130.408 1176.76 120.2 1176.38 102.6C1176.38 101 1177.37 100.072 1179.35 99.816ZM1179.93 165.864C1180.5 163.88 1181.53 162.888 1183 162.888C1184.54 162.888 1185.59 163.88 1186.17 165.864C1185.46 167.72 1184.47 168.648 1183.19 168.648H1182.9C1181.62 168.648 1180.63 167.72 1179.93 165.864Z" fill="black"/>
<path d="M193.443 254.517C193.443 258.348 196.066 261.509 198.955 264.118C200.199 265.242 201.519 266.286 202.738 267.25C202.944 267.412 203.146 267.572 203.345 267.73C204.737 268.836 205.93 269.818 206.712 270.713C207.514 271.631 207.744 272.299 207.568 272.827C207.38 273.394 206.652 274.072 204.795 274.775C201.138 276.161 193.761 277.411 180.53 278.64C166.884 279.908 159.232 279.691 155.313 278.529C153.359 277.949 152.454 277.17 152.114 276.345C151.771 275.509 151.934 274.454 152.537 273.147C153.135 271.85 154.115 270.412 155.238 268.871C155.555 268.435 155.884 267.991 156.218 267.541C157.052 266.415 157.913 265.252 158.69 264.09C159.78 262.463 160.735 260.794 161.253 259.156C161.761 257.548 161.858 255.932 161.207 254.411C161.182 252.529 160.503 250.698 159.49 248.95C158.458 247.17 157.061 245.447 155.6 243.811C154.783 242.896 153.92 241.982 153.088 241.1C152.452 240.425 151.833 239.769 151.267 239.147C149.928 237.676 148.824 236.335 148.191 235.127C147.558 233.921 147.449 232.96 147.898 232.153C148.368 231.307 149.531 230.471 151.863 229.753C156.506 228.323 165.308 227.5 180.577 227.5C186.89 227.5 191.821 227.705 195.621 228.089C199.428 228.475 202.068 229.038 203.815 229.739C205.569 230.443 206.323 231.244 206.55 232.047C206.782 232.866 206.52 233.87 205.794 235.107C205.076 236.331 203.965 237.682 202.673 239.154C202.267 239.616 201.844 240.091 201.411 240.575C200.48 241.619 199.507 242.709 198.582 243.825C195.885 247.078 193.443 250.721 193.443 254.517Z" fill="#FBE5D6" stroke="black"/>
<path d="M107.935 55.4139L148.579 86.7866C150.803 88.5027 150.928 91.8137 148.841 93.693L135.149 106.021C133.062 107.9 129.782 107.429 128.308 105.039L101.356 61.3384C98.7285 57.0787 103.974 52.3559 107.935 55.4139Z" fill="#D9D9D9" stroke="black"/>
<path d="M135.706 49.7834L166.845 90.6064C168.548 92.8395 167.812 96.0701 165.31 97.3452L148.894 105.709C146.392 106.984 143.346 105.681 142.54 102.99L127.817 53.803C126.382 49.0085 132.67 45.8041 135.706 49.7834Z" fill="#D9D9D9" stroke="black"/>
<path d="M87.535 103.03L127.574 112.969C130.369 113.663 131.802 116.768 130.517 119.345L122.513 135.4C121.228 137.977 117.886 138.701 115.65 136.886L83.6153 110.891C79.8799 107.86 82.8662 101.871 87.535 103.03Z" fill="#D9D9D9" stroke="black"/>
<path d="M216.086 107.765L200.552 98.7964C197.744 97.175 197.52 93.2052 200.129 91.279L239.136 62.4809C243.126 59.5354 248.249 64.2647 245.631 68.4766L239.502 78.3372L222.158 106.243C220.876 108.306 218.189 108.979 216.086 107.765Z" fill="#D9D9D9" stroke="black"/>
<path d="M274.081 130.184L226.098 143.888C223.501 144.63 220.84 142.933 220.417 140.265L218.531 128.355C218.108 125.688 220.115 123.251 222.814 123.154L272.683 121.36C277.994 121.169 279.191 128.725 274.081 130.184Z" fill="#D9D9D9" stroke="black"/>
<path d="M270.51 114.99L235.934 137.494C233.52 139.065 230.273 137.996 229.264 135.298L222.982 118.494C221.973 115.797 223.723 112.86 226.575 112.462L267.434 106.762C272.198 106.097 274.542 112.366 270.51 114.99Z" fill="#D9D9D9" stroke="black"/>
<path d="M254.027 96.3561L219.451 118.86C217.037 120.431 213.789 119.362 212.781 116.664L206.498 99.8607C205.49 97.1632 207.239 94.2258 210.092 93.8279L250.95 88.1277C255.715 87.4631 258.059 93.732 254.027 96.3561Z" fill="#D9D9D9" stroke="black"/>
<path d="M278.394 140.074L243.818 162.578C241.404 164.148 238.157 163.079 237.148 160.382L230.866 143.578C229.857 140.881 231.607 137.943 234.459 137.545L275.318 131.845C280.082 131.181 282.426 137.45 278.394 140.074Z" fill="#D9D9D9" stroke="black"/>
<path d="M287.786 179.171L238.528 189.657C235.775 190.243 233.166 188.187 233.093 185.373L232.611 166.994C232.538 164.181 235.035 161.991 237.815 162.432L287.555 170.326C292.481 171.107 292.665 178.133 287.786 179.171Z" fill="#D9D9D9" stroke="black"/>
<path d="M68.2729 174.901L109.505 159.592C112.184 158.598 115.099 160.32 115.522 163.146L118.196 181.039C118.618 183.866 116.334 186.365 113.481 186.197L82.7281 184.386L69.5747 183.612C64.7131 183.326 63.7074 176.596 68.2729 174.901Z" fill="#D9D9D9" stroke="black"/>
<path d="M156.543 35.8397L175.797 80.3903C176.918 82.9841 175.399 85.9572 172.64 86.5688L154.765 90.5316C152.006 91.1431 149.373 89.0906 149.293 86.266L147.914 37.7527C147.773 32.7974 154.577 31.2892 156.543 35.8397Z" fill="#D9D9D9" stroke="black"/>
<path d="M218.453 36.7853L208.938 96.3572C208.502 99.0863 205.732 100.781 203.104 99.9272L185.301 94.1426C182.672 93.2886 181.428 90.2892 182.679 87.8251L209.997 34.0378C212.321 29.4628 219.262 31.7183 218.453 36.7853Z" fill="#D9D9D9" stroke="black"/>
<path d="M188.453 40.8139L190.166 83.8225C190.275 86.5636 187.927 88.7636 185.199 88.4769L172.87 87.1811C170.142 86.8943 168.303 84.2542 168.979 81.5958L179.596 39.8829C180.876 34.8532 188.247 35.6279 188.453 40.8139Z" fill="#D9D9D9" stroke="black"/>
<path d="M109.301 89.7002L146.858 106.77C149.48 107.962 150.323 111.275 148.59 113.575L137.794 127.902C136.061 130.202 132.643 130.305 130.775 128.113L104.014 96.716C100.894 93.0549 104.921 87.7097 109.301 89.7002Z" fill="#D9D9D9" stroke="black"/>
<path d="M76.9217 135.927L118.15 134.446C121.028 134.342 123.261 136.931 122.736 139.763L119.467 157.402C118.942 160.234 115.929 161.85 113.28 160.723L75.3208 144.565C70.8946 142.681 72.1143 136.1 76.9217 135.927Z" fill="#D9D9D9" stroke="black"/>
<path d="M239.625 163C239.625 207.575 211.091 243.5 176.125 243.5C141.158 243.5 112.625 207.575 112.625 163C112.625 118.425 141.158 82.5 176.125 82.5C211.091 82.5 239.625 118.425 239.625 163Z" fill="#FBE5D6" stroke="black"/>
<path d="M173.625 131.5C173.625 140.932 166.644 148.5 158.125 148.5C149.605 148.5 142.625 140.932 142.625 131.5C142.625 122.068 149.605 114.5 158.125 114.5C166.644 114.5 173.625 122.068 173.625 131.5Z" fill="white" stroke="black"/>
<path d="M215.625 132C215.625 141.754 209.051 149.5 201.125 149.5C193.198 149.5 186.625 141.754 186.625 132C186.625 122.246 193.198 114.5 201.125 114.5C209.051 114.5 215.625 122.246 215.625 132Z" fill="white" stroke="black"/>
<circle cx="201.125" cy="133" r="2.8" fill="black" stroke="black" stroke-width="0.4"/>
<circle cx="158.125" cy="133" r="2.8" fill="black" stroke="black" stroke-width="0.4"/>
<path d="M172.382 218.348L172.299 218.318H172.212C166.405 218.318 160.54 218.534 154.796 218.745C150.718 218.895 146.701 219.043 142.809 219.109C133.398 219.271 124.656 218.962 117.269 217.107C109.892 215.254 103.906 211.87 99.947 205.904C95.9814 199.928 94.0006 191.288 94.7989 178.823C95.5994 166.326 98.2793 159.049 102.41 155.201C106.513 151.38 112.177 150.829 119.281 152.141C125.779 153.341 133.357 156.075 141.84 159.135C142.635 159.422 143.438 159.712 144.248 160.003C153.69 163.398 164.153 167.032 175.319 169.274L175.368 169.284H175.417C185.408 169.284 195.713 167.496 205.521 165.518C207.565 165.106 209.588 164.686 211.581 164.271C219.168 162.694 226.334 161.204 232.726 160.577C240.807 159.784 247.505 160.388 252.183 163.817C256.833 167.226 259.625 173.535 259.625 184.509C259.625 195.457 256.594 203.886 251.48 210.17C246.362 216.458 239.125 220.638 230.645 223.024C213.67 227.799 191.804 225.359 172.382 218.348Z" fill="#A42727" stroke="black"/>
<path d="M129.744 175.237C128.363 180.585 131.579 186.039 136.927 187.419C142.275 188.8 147.729 185.584 149.109 180.236L129.744 175.237ZM133.132 162.11L129.744 175.237L149.109 180.236L152.498 167.109L133.132 162.11Z" fill="#EAEC4E"/>
<path d="M152.38 184.822C152.731 190.333 157.483 194.517 162.995 194.167C168.507 193.816 172.691 189.064 172.34 183.552L152.38 184.822ZM151.469 170.488L152.38 184.822L172.34 183.552L171.429 169.219L151.469 170.488Z" fill="#EAEC4E"/>
<path d="M178.459 183.195C177.12 188.553 180.377 193.982 185.735 195.322C191.093 196.661 196.523 193.404 197.862 188.046L178.459 183.195ZM182.043 168.861L178.459 183.195L197.862 188.046L201.446 173.712L182.043 168.861Z" fill="#EAEC4E"/>
<path d="M214.973 185.635C217.356 190.617 223.327 192.724 228.309 190.341C233.292 187.959 235.399 181.988 233.016 177.006L214.973 185.635ZM207.09 169.151L214.973 185.635L233.016 177.006L225.133 160.522L207.09 169.151Z" fill="#EAEC4E"/>
<path d="M139.125 203C139.125 197.477 134.647 193 129.125 193C123.602 193 119.125 197.477 119.125 203H139.125ZM139.125 218V203H119.125V218H139.125Z" fill="#EAEC4E"/>
<path d="M164.125 206C164.125 200.477 159.647 196 154.125 196C148.602 196 144.125 200.477 144.125 206H164.125ZM164.125 221V206H144.125V221H164.125Z" fill="#EAEC4E"/>
<path d="M228.465 202.525C226.718 197.286 221.055 194.454 215.816 196.2C210.576 197.947 207.745 203.61 209.491 208.85L228.465 202.525ZM233.481 217.575L228.465 202.525L209.491 208.85L214.508 223.9L233.481 217.575Z" fill="#EAEC4E"/>
<path d="M190.235 203.25L190.102 203.234L189.978 203.287C186.821 204.644 185.405 206.772 184.855 209.159C184.366 211.281 184.565 213.605 184.744 215.695C184.762 215.904 184.78 216.111 184.797 216.315C184.891 217.454 184.958 218.506 184.896 219.441C184.834 220.376 184.645 221.149 184.263 221.75C183.532 222.898 181.922 223.654 178.213 223.273L178.158 223.267L178.104 223.274C174.842 223.656 172.539 223.549 170.905 222.985C169.307 222.433 168.319 221.434 167.69 219.92C167.046 218.372 166.777 216.283 166.678 213.571C166.609 211.697 166.621 209.562 166.636 207.142C166.642 206.067 166.649 204.936 166.649 203.746C166.649 197.067 167.983 192.657 170.023 189.775C172.055 186.905 174.828 185.492 177.837 184.886C180.861 184.276 184.108 184.484 187.044 184.856C188.077 184.986 189.061 185.135 189.984 185.275C190.373 185.334 190.751 185.392 191.118 185.445C192.288 185.617 193.344 185.751 194.197 185.761C198.907 187.872 202.211 190.196 204.223 192.436C206.254 194.698 206.915 196.807 206.511 198.511C206.109 200.207 204.605 201.695 201.863 202.615C199.125 203.533 195.229 203.853 190.235 203.25Z" fill="#F4A09D" stroke="black"/>
<path d="M190.221 203.137L184.365 203.137C182.767 203.137 181.187 202.79 179.736 202.121V202.121C177.958 201.301 176.43 200.025 175.308 198.421L174.374 197.087" stroke="black"/>
<mask id="path-38-inside-2_147_2" fill="white">
<path fill-rule="evenodd" clip-rule="evenodd" d="M171.677 226.471C210.579 240.573 260.004 228.396 260.004 184.101C260.004 153.179 238.13 157.746 211.422 163.322C199.872 165.733 187.417 168.334 175.435 168.334C163.37 165.901 152.121 161.826 142.072 158.185C115.114 148.417 96.7845 141.776 94.4508 178.367C91.3725 226.636 128.875 226.557 167.021 226.478C168.573 226.474 170.126 226.471 171.677 226.471ZM172.035 217.154C202.494 228.22 251.046 220.652 251.046 185.893C251.046 161.818 230.024 166.451 206.777 171.573C196.46 173.847 185.704 176.217 176.153 176.217C165.325 176.217 154.08 172.04 143.918 168.264C124.918 161.206 109.702 155.553 108.068 181.234C105.748 217.689 135.857 217.437 164.975 217.194C167.341 217.174 169.701 217.154 172.035 217.154Z"/>
</mask>
<path fill-rule="evenodd" clip-rule="evenodd" d="M171.677 226.471C210.579 240.573 260.004 228.396 260.004 184.101C260.004 153.179 238.13 157.746 211.422 163.322C199.872 165.733 187.417 168.334 175.435 168.334C163.37 165.901 152.121 161.826 142.072 158.185C115.114 148.417 96.7845 141.776 94.4508 178.367C91.3725 226.636 128.875 226.557 167.021 226.478C168.573 226.474 170.126 226.471 171.677 226.471ZM172.035 217.154C202.494 228.22 251.046 220.652 251.046 185.893C251.046 161.818 230.024 166.451 206.777 171.573C196.46 173.847 185.704 176.217 176.153 176.217C165.325 176.217 154.08 172.04 143.918 168.264C124.918 161.206 109.702 155.553 108.068 181.234C105.748 217.689 135.857 217.437 164.975 217.194C167.341 217.174 169.701 217.154 172.035 217.154Z" fill="#FBE5D6"/>
<path d="M171.677 226.471L171.848 226.001L171.765 225.971H171.677V226.471ZM211.422 163.322L211.525 163.811L211.525 163.811L211.422 163.322ZM175.435 168.334L175.337 168.824L175.386 168.834H175.435V168.334ZM142.072 158.185L141.902 158.655L141.902 158.655L142.072 158.185ZM94.4508 178.367L93.9518 178.336L93.9518 178.336L94.4508 178.367ZM167.021 226.478L167.023 226.978L167.023 226.978L167.021 226.478ZM172.035 217.154L172.206 216.684L172.124 216.654H172.035V217.154ZM206.777 171.573L206.885 172.062L206.885 172.062L206.777 171.573ZM143.918 168.264L144.092 167.796L144.092 167.796L143.918 168.264ZM108.068 181.234L107.569 181.202L107.569 181.202L108.068 181.234ZM164.975 217.194L164.98 217.694L164.98 217.694L164.975 217.194ZM259.504 184.101C259.504 206.016 247.3 219.967 230.245 226.72C213.158 233.486 191.204 233.018 171.848 226.001L171.507 226.941C191.052 234.026 213.261 234.521 230.613 227.65C247.995 220.767 260.504 206.482 260.504 184.101H259.504ZM211.525 163.811C218.207 162.416 224.561 161.09 230.343 160.364C236.129 159.637 241.298 159.518 245.617 160.512C249.917 161.501 253.364 163.591 255.748 167.295C258.144 171.016 259.504 176.421 259.504 184.101H260.504C260.504 176.32 259.129 170.699 256.589 166.754C254.038 162.792 250.347 160.574 245.841 159.537C241.352 158.504 236.045 158.64 230.218 159.372C224.388 160.104 217.992 161.439 211.32 162.832L211.525 163.811ZM175.435 168.834C187.477 168.834 199.984 166.221 211.525 163.811L211.32 162.832C199.759 165.246 187.356 167.834 175.435 167.834V168.834ZM141.902 158.655C151.947 162.294 163.229 166.383 175.337 168.824L175.534 167.844C163.51 165.42 152.296 161.357 142.243 157.714L141.902 158.655ZM94.9498 178.399C95.5313 169.282 97.1068 162.924 99.5205 158.649C101.919 154.4 105.152 152.197 109.128 151.381C113.137 150.558 117.939 151.137 123.462 152.556C128.98 153.973 135.156 156.21 141.902 158.655L142.243 157.714C135.51 155.275 129.285 153.019 123.711 151.587C118.142 150.157 113.161 149.532 108.927 150.401C104.659 151.278 101.186 153.665 98.6498 158.157C96.128 162.623 94.5372 169.157 93.9518 178.336L94.9498 178.399ZM167.02 225.978C157.479 225.998 148.005 226.017 139.198 225.284C130.39 224.55 122.284 223.065 115.477 220.095C108.68 217.129 103.183 212.684 99.5665 206.021C95.9458 199.349 94.1841 190.405 94.9498 178.399L93.9518 178.336C93.1783 190.464 94.9502 199.611 98.6875 206.498C102.429 213.392 108.115 217.974 115.077 221.011C122.029 224.045 130.259 225.542 139.115 226.28C147.972 227.018 157.491 226.997 167.023 226.978L167.02 225.978ZM171.677 225.971C170.125 225.971 168.572 225.974 167.02 225.978L167.023 226.978C168.574 226.974 170.127 226.971 171.677 226.971V225.971ZM250.546 185.893C250.546 202.968 238.645 213.411 222.817 218.229C206.981 223.05 187.339 222.182 172.206 216.684L171.865 217.624C187.191 223.192 207.054 224.073 223.108 219.186C239.171 214.297 251.546 203.576 251.546 185.893H250.546ZM206.885 172.062C212.701 170.78 218.356 169.534 223.575 168.759C228.798 167.983 233.548 167.684 237.556 168.279C241.556 168.872 244.779 170.349 247.01 173.094C249.246 175.845 250.546 179.941 250.546 185.893H251.546C251.546 179.807 250.218 175.455 247.786 172.463C245.349 169.466 241.863 167.907 237.703 167.29C233.55 166.673 228.685 166.989 223.428 167.77C218.168 168.551 212.478 169.805 206.67 171.085L206.885 172.062ZM176.153 176.717C185.769 176.717 196.582 174.332 206.885 172.062L206.67 171.085C196.338 173.362 185.639 175.717 176.153 175.717V176.717ZM143.744 168.733C153.886 172.501 165.218 176.717 176.153 176.717V175.717C165.431 175.717 154.274 171.578 144.092 167.796L143.744 168.733ZM108.567 181.266C108.973 174.884 110.22 170.522 112.105 167.655C113.973 164.814 116.49 163.405 119.552 162.967C122.642 162.524 126.297 163.069 130.4 164.184C134.497 165.298 138.988 166.966 143.744 168.733L144.092 167.796C139.348 166.033 134.812 164.348 130.662 163.219C126.517 162.092 122.703 161.505 119.41 161.977C116.089 162.453 113.308 164.005 111.269 167.106C109.248 170.181 107.98 174.743 107.569 181.202L108.567 181.266ZM164.971 216.694C150.377 216.816 135.686 216.93 124.922 212.514C119.562 210.314 115.204 207 112.319 202.016C109.431 197.027 107.991 190.314 108.567 181.266L107.569 181.202C106.985 190.382 108.438 197.308 111.454 202.517C114.472 207.732 119.025 211.175 124.543 213.439C135.533 217.949 150.456 217.815 164.98 217.694L164.971 216.694ZM172.035 216.654C169.698 216.654 167.337 216.674 164.971 216.694L164.98 217.694C167.346 217.674 169.703 217.654 172.035 217.654V216.654Z" fill="black" mask="url(#path-38-inside-2_147_2)"/>
<path d="M191.744 197.804L190.669 194.22L190.351 192.949C190.087 191.893 189.644 190.891 189.04 189.986V189.986C188.694 189.466 188.296 188.981 187.854 188.539L187.66 188.345C186.804 187.489 185.826 186.764 184.758 186.194L180.994 184.187" stroke="black"/>
<path d="M223.752 203.728C224.934 204.51 225.258 206.102 224.476 207.284C223.694 208.466 222.102 208.79 220.92 208.008C220.597 207.794 220.39 207.644 220.209 207.463C220.03 207.283 219.868 207.063 219.651 206.7C219.437 206.343 219.181 205.868 218.813 205.186C218.464 204.538 218.013 203.702 217.402 202.602C218.653 202.735 219.598 202.823 220.332 202.891C221.104 202.963 221.641 203.013 222.053 203.071C222.471 203.129 222.737 203.192 222.973 203.287C223.211 203.382 223.43 203.514 223.752 203.728Z" fill="#A4CEFF" stroke="black" stroke-width="0.5"/>
<path d="M243.101 219.495C244.282 220.277 244.606 221.869 243.824 223.051C243.042 224.233 241.45 224.557 240.268 223.774C239.945 223.561 239.738 223.411 239.557 223.23C239.378 223.05 239.216 222.829 238.999 222.467C238.785 222.11 238.529 221.635 238.161 220.953C237.812 220.304 237.361 219.469 236.75 218.369C238.001 218.502 238.947 218.59 239.68 218.658C240.452 218.73 240.989 218.78 241.401 218.837C241.819 218.896 242.085 218.959 242.321 219.054C242.559 219.149 242.778 219.281 243.101 219.495Z" fill="#A4CEFF" stroke="black" stroke-width="0.5"/>
<path d="M223.333 218.609C225.509 221.069 225.368 224.717 223.058 226.762C220.747 228.806 217.108 228.501 214.933 226.042C214.369 225.405 213.996 224.95 213.695 224.439C213.395 223.929 213.16 223.351 212.887 222.464C212.621 221.597 212.325 220.455 211.9 218.82C211.472 217.171 210.914 215.02 210.125 212.144C212.884 213.278 214.95 214.094 216.534 214.72C218.106 215.34 219.203 215.774 220.031 216.144C220.878 216.522 221.423 216.826 221.893 217.186C222.364 217.547 222.769 217.972 223.333 218.609Z" fill="#A4CEFF" stroke="black" stroke-width="0.5"/>
<path d="M206.8 232.848C208.178 234.407 207.997 236.839 206.369 238.28C204.741 239.72 202.304 239.604 200.925 238.045C200.558 237.63 200.321 237.339 200.135 237.01C199.95 236.682 199.808 236.306 199.648 235.715C199.491 235.135 199.321 234.371 199.078 233.276C198.838 232.193 198.527 230.787 198.084 228.915C199.888 229.583 201.246 230.064 202.291 230.434C203.348 230.808 204.085 231.069 204.642 231.296C205.209 231.527 205.566 231.714 205.868 231.938C206.172 232.163 206.432 232.433 206.8 232.848Z" fill="#A4CEFF" stroke="black" stroke-width="0.5"/>
<path d="M199.29 214.26C200.053 215.122 199.899 216.579 198.846 217.511C197.792 218.442 196.328 218.418 195.565 217.555C195.348 217.31 195.216 217.145 195.116 216.96C195.017 216.775 194.942 216.557 194.861 216.199C194.781 215.845 194.699 215.38 194.582 214.712C194.47 214.075 194.325 213.254 194.119 212.168C195.171 212.505 195.969 212.749 196.588 212.937C197.237 213.136 197.688 213.273 198.029 213.396C198.375 213.52 198.582 213.621 198.753 213.742C198.925 213.864 199.073 214.014 199.29 214.26Z" fill="#A4CEFF" stroke="black" stroke-width="0.5"/>
<mask id="path-46-inside-3_147_2" fill="white">
<path fill-rule="evenodd" clip-rule="evenodd" d="M307.336 272.331C307.265 272.458 307.104 272.502 306.978 272.431L306.764 272.31C306.613 272.224 306.44 272.38 306.509 272.539C306.549 272.631 306.507 272.738 306.416 272.777L240.274 301.536V301.536C238.798 302.178 237.797 303.857 238.341 305.372C240.011 310.028 241.116 314.973 241.567 320.132L243.316 340.123C246.145 372.456 222.227 400.96 189.894 403.789C157.561 406.618 129.057 382.7 126.228 350.367L124.479 330.376C124.104 326.092 124.199 321.874 124.721 317.775C124.987 315.688 123.534 313.749 121.695 312.73V312.73L63.7365 280.603C56.557 276.623 50.7757 270.531 47.1772 263.153L25.1073 217.903C22.4643 212.484 24.7146 205.949 30.1335 203.306C35.5523 200.663 42.0876 202.913 44.7306 208.332L64.1512 248.15C67.7497 255.528 73.531 261.62 80.7105 265.6L132.046 294.056V294.056C132.52 294.318 133.13 294.19 133.421 293.733C142.9 278.84 158.956 268.368 177.901 266.71C194.718 265.239 210.499 271.003 222.171 281.423C224.614 283.604 228.698 283.125 231.701 281.819V281.819L279.857 260.88C287.823 257.417 294.444 251.455 298.722 243.895L319.911 206.444C322.834 201.276 329.393 199.457 334.561 202.381C339.728 205.304 341.547 211.863 338.624 217.031L307.336 272.331Z"/>
</mask>
<path fill-rule="evenodd" clip-rule="evenodd" d="M307.336 272.331C307.265 272.458 307.104 272.502 306.978 272.431L306.764 272.31C306.613 272.224 306.44 272.38 306.509 272.539C306.549 272.631 306.507 272.738 306.416 272.777L240.274 301.536V301.536C238.798 302.178 237.797 303.857 238.341 305.372C240.011 310.028 241.116 314.973 241.567 320.132L243.316 340.123C246.145 372.456 222.227 400.96 189.894 403.789C157.561 406.618 129.057 382.7 126.228 350.367L124.479 330.376C124.104 326.092 124.199 321.874 124.721 317.775C124.987 315.688 123.534 313.749 121.695 312.73V312.73L63.7365 280.603C56.557 276.623 50.7757 270.531 47.1772 263.153L25.1073 217.903C22.4643 212.484 24.7146 205.949 30.1335 203.306C35.5523 200.663 42.0876 202.913 44.7306 208.332L64.1512 248.15C67.7497 255.528 73.531 261.62 80.7105 265.6L132.046 294.056V294.056C132.52 294.318 133.13 294.19 133.421 293.733C142.9 278.84 158.956 268.368 177.901 266.71C194.718 265.239 210.499 271.003 222.171 281.423C224.614 283.604 228.698 283.125 231.701 281.819V281.819L279.857 260.88C287.823 257.417 294.444 251.455 298.722 243.895L319.911 206.444C322.834 201.276 329.393 199.457 334.561 202.381C339.728 205.304 341.547 211.863 338.624 217.031L307.336 272.331Z" fill="white"/>
<path d="M306.978 272.431L307.47 271.56L307.47 271.56L306.978 272.431ZM307.336 272.331L306.466 271.839L306.466 271.839L307.336 272.331ZM306.764 272.31L306.272 273.18L306.272 273.18L306.764 272.31ZM306.509 272.539L305.592 272.938L305.592 272.938L306.509 272.539ZM306.416 272.777L306.814 273.694L306.815 273.694L306.416 272.777ZM241.567 320.132L240.571 320.22L240.571 320.22L241.567 320.132ZM243.316 340.123L244.313 340.036L244.313 340.036L243.316 340.123ZM189.894 403.789L189.807 402.793L189.807 402.793L189.894 403.789ZM126.228 350.367L127.224 350.28L127.224 350.28L126.228 350.367ZM124.479 330.376L123.483 330.463L123.483 330.463L124.479 330.376ZM63.7365 280.603L63.2517 281.478L63.2517 281.478L63.7365 280.603ZM47.1772 263.153L48.076 262.715L47.1772 263.153ZM25.1073 217.903L24.2085 218.341L24.2085 218.341L25.1073 217.903ZM30.1335 203.306L29.6951 202.407L30.1335 203.306ZM44.7306 208.332L43.8318 208.77L43.8318 208.77L44.7306 208.332ZM64.1512 248.15L65.05 247.712L65.05 247.712L64.1512 248.15ZM80.7105 265.6L81.1953 264.726L81.1953 264.726L80.7105 265.6ZM177.901 266.71L177.988 267.706L177.988 267.706L177.901 266.71ZM279.857 260.88L280.256 261.797L280.256 261.797L279.857 260.88ZM298.722 243.895L297.851 243.402L297.851 243.402L298.722 243.895ZM319.911 206.444L319.04 205.951L319.04 205.951L319.911 206.444ZM334.561 202.381L334.068 203.251L334.068 203.251L334.561 202.381ZM338.624 217.031L337.753 216.538L337.753 216.538L338.624 217.031ZM222.171 281.423L222.837 280.677L222.171 281.423ZM133.421 293.733L132.577 293.196L133.421 293.733ZM124.721 317.775L125.713 317.901L124.721 317.775ZM238.341 305.372L239.282 305.035L238.341 305.372ZM306.485 273.301C307.092 273.644 307.863 273.431 308.206 272.824L306.466 271.839C306.666 271.484 307.116 271.36 307.47 271.56L306.485 273.301ZM306.272 273.18L306.485 273.301L307.47 271.56L307.257 271.44L306.272 273.18ZM307.427 272.141C307.74 272.862 306.956 273.568 306.272 273.18L307.257 271.44C306.27 270.881 305.141 271.899 305.592 272.938L307.427 272.141ZM306.815 273.694C307.413 273.434 307.687 272.739 307.427 272.141L305.592 272.938C305.412 272.523 305.602 272.041 306.017 271.86L306.815 273.694ZM240.673 302.454L306.814 273.694L306.017 271.86L239.876 300.619L240.673 302.454ZM237.4 305.71C239.041 310.286 240.127 315.147 240.571 320.22L242.564 320.045C242.105 314.8 240.981 309.771 239.282 305.035L237.4 305.71ZM240.571 320.22L242.32 340.21L244.313 340.036L242.564 320.045L240.571 320.22ZM242.32 340.21C245.101 371.993 221.59 400.012 189.807 402.793L189.981 404.785C222.865 401.908 247.189 372.919 244.313 340.036L242.32 340.21ZM189.807 402.793C158.024 405.574 130.005 382.063 127.224 350.28L125.232 350.454C128.109 383.337 157.098 407.662 189.981 404.785L189.807 402.793ZM127.224 350.28L125.475 330.289L123.483 330.463L125.232 350.454L127.224 350.28ZM125.475 330.289C125.107 326.076 125.2 321.93 125.713 317.901L123.729 317.648C123.198 321.818 123.102 326.107 123.483 330.463L125.475 330.289ZM122.179 311.855L64.2213 279.728L63.2517 281.478L121.21 313.604L122.179 311.855ZM64.2213 279.728C57.2213 275.848 51.5845 269.908 48.076 262.715L46.2784 263.591C49.9668 271.154 55.8927 277.398 63.2517 281.478L64.2213 279.728ZM48.076 262.715L26.0061 217.465L24.2085 218.341L46.2784 263.591L48.076 262.715ZM26.0061 217.465C23.6052 212.542 25.6494 206.605 30.5718 204.205L29.6951 202.407C23.7799 205.292 21.3234 212.426 24.2085 218.341L26.0061 217.465ZM30.5718 204.205C35.4943 201.804 41.4309 203.848 43.8318 208.77L45.6293 207.894C42.7443 201.978 35.6103 199.522 29.6951 202.407L30.5718 204.205ZM43.8318 208.77L63.2524 248.589L65.05 247.712L45.6293 207.894L43.8318 208.77ZM63.2524 248.589C66.9408 256.151 72.8667 262.396 80.2257 266.475L81.1953 264.726C74.1953 260.845 68.5585 254.905 65.05 247.712L63.2524 248.589ZM80.2257 266.475L131.561 294.93L132.53 293.181L81.1953 264.726L80.2257 266.475ZM134.264 294.27C143.584 279.628 159.366 269.336 177.988 267.706L177.814 265.714C158.546 267.4 142.216 278.052 132.577 293.196L134.264 294.27ZM177.988 267.706C194.519 266.26 210.03 271.925 221.505 282.169L222.837 280.677C210.968 270.081 194.917 264.218 177.814 265.714L177.988 267.706ZM279.459 259.963L231.302 280.902L232.1 282.736L280.256 261.797L279.459 259.963ZM297.851 243.402C293.681 250.773 287.225 256.586 279.459 259.963L280.256 261.797C288.421 258.247 295.208 252.136 299.592 244.387L297.851 243.402ZM319.04 205.951L297.851 243.402L299.592 244.387L320.781 206.936L319.04 205.951ZM335.053 201.51C329.405 198.315 322.236 200.303 319.04 205.951L320.781 206.936C323.433 202.249 329.381 200.599 334.068 203.251L335.053 201.51ZM339.494 217.523C342.689 211.875 340.701 204.706 335.053 201.51L334.068 203.251C338.755 205.903 340.405 211.852 337.753 216.538L339.494 217.523ZM308.206 272.824L339.494 217.523L337.753 216.538L306.466 271.839L308.206 272.824ZM221.505 282.169C222.969 283.477 224.873 283.94 226.732 283.929C228.593 283.918 230.498 283.433 232.1 282.736L231.302 280.902C229.9 281.512 228.262 281.92 226.72 281.929C225.175 281.938 223.815 281.551 222.837 280.677L221.505 282.169ZM131.561 294.93C132.456 295.426 133.665 295.212 134.264 294.27L132.577 293.196C132.579 293.193 132.582 293.19 132.585 293.188C132.587 293.186 132.586 293.188 132.58 293.189C132.567 293.192 132.548 293.191 132.53 293.181L131.561 294.93ZM125.713 317.901C126.049 315.259 124.224 312.988 122.179 311.855L121.21 313.604C122.844 314.51 123.924 316.117 123.729 317.648L125.713 317.901ZM239.876 300.619C238.057 301.41 236.631 303.566 237.4 305.71L239.282 305.035C238.964 304.148 239.539 302.947 240.673 302.454L239.876 300.619Z" fill="black" mask="url(#path-46-inside-3_147_2)"/>
<path d="M139.783 280.222L143.724 276.997L145.874 275.564L146.949 274.847L148.383 274.13L159.237 373.467L149.268 374.602L139.783 280.222Z" fill="black"/>
<path d="M205.692 268.906L207.872 269.528L209.693 270.166L211.888 271.147L213.724 272.142L214.798 368.44L206.813 368.51L205.692 268.906Z" fill="black"/>
<path fill-rule="evenodd" clip-rule="evenodd" d="M141.362 300.413C140.265 300.539 139.476 301.53 139.601 302.627L139.86 304.898C139.985 305.995 140.976 306.784 142.074 306.659L152.551 305.465C153.648 305.34 154.437 304.349 154.312 303.251L154.053 300.98C153.928 299.883 152.937 299.095 151.839 299.22L141.362 300.413ZM152.054 300.745L141.112 301.992L141.461 305.052L152.403 303.806L152.054 300.745Z" fill="#D9D9D9"/>
<path d="M140.857 303.151L152.963 301.772L153.044 302.484L140.939 303.863L140.857 303.151Z" fill="#D9D9D9"/>
<path d="M140.857 303.151L152.963 301.772L153.044 302.484L140.939 303.863L140.857 303.151Z" fill="#D9D9D9"/>
<path fill-rule="evenodd" clip-rule="evenodd" d="M206.143 296.775C205.039 296.737 204.113 297.6 204.075 298.704L203.995 300.989C203.956 302.092 204.82 303.019 205.924 303.057L216.463 303.425C217.567 303.464 218.493 302.6 218.531 301.496L218.611 299.212C218.65 298.108 217.786 297.182 216.682 297.143L206.143 296.775ZM216.669 298.684L205.663 298.3L205.556 301.378L216.562 301.762L216.669 298.684Z" fill="#D9D9D9"/>
<path d="M205.222 299.408L217.398 299.833L217.373 300.549L205.197 300.124L205.222 299.408Z" fill="#D9D9D9"/>
<line x1="161.398" y1="270.697" x2="177.398" y2="291.697" stroke="#CECECE"/>
<path d="M177 291.587L192 267" stroke="#CECECE"/>
<path d="M177 290.953L177.419 292.952C178.472 297.977 179.136 303.075 179.406 308.201L179.5 310L181.5 328L182.5 345.5L182.639 346.336C183.545 351.769 184 357.268 184 362.776L184 364.953" stroke="#CECECE"/>
<circle cx="179" cy="300" r="2" fill="black"/>
<path d="M182 316.268C182 317.372 181.105 318.268 180 318.268C178.895 318.268 178 317.372 178 316.268C178 315.163 178.895 314.268 180 314.268C181.105 314.268 182 315.163 182 316.268Z" fill="black"/>
<circle cx="182" cy="338" r="2" fill="black"/>
<circle cx="184" cy="356" r="2" fill="black"/>
<path d="M177.111 290.5L160.5 269L193.5 264L177.111 290.5Z" fill="#FBE5D6"/>
<g filter="url(#filter0_d_147_2)">
<ellipse cx="113.398" cy="390.889" rx="63.336" ry="54.8887" fill="white"/>
<ellipse cx="237.413" cy="401.109" rx="73.9658" ry="59.8097" fill="white"/>
<ellipse cx="69.5505" cy="442.371" rx="65.5505" ry="55.6457" fill="white"/>
<ellipse cx="335.739" cy="416.251" rx="63.336" ry="55.2672" fill="white"/>
<ellipse cx="150.16" cy="469.625" rx="64.6647" ry="53.3745" fill="white"/>
<ellipse cx="243.171" cy="458.269" rx="74.4087" ry="57.1599" fill="white"/>
</g>
<path d="M117.752 413.208C118.904 413.208 119.648 415.008 119.984 418.608L120.272 422.496C120.272 425.424 119.744 433.056 118.688 445.392H119.12V445.608L119.408 445.392H119.984L128.408 446.04H128.984L132.584 444.96H133.088C133.856 445.44 134.384 446.112 134.672 446.976C134.672 448.8 132.632 449.928 128.552 450.36L121.208 449.64H119.84L116.384 450.576C115.088 450.096 114.44 449.328 114.44 448.272L115.952 423.576V422.496L115.52 415.296C115.52 414.096 116.264 413.4 117.752 413.208ZM148.599 422.856C152.151 422.856 154.839 425.496 156.663 430.776L156.951 432.288C156.951 437.424 154.551 442.68 149.751 448.056C147.831 449.832 145.887 450.72 143.919 450.72C141.039 450.72 138.999 449.064 137.799 445.752C137.367 444.216 137.151 442.872 137.151 441.72V440.856C137.151 433.272 139.911 427.512 145.431 423.576C146.391 423.096 147.447 422.856 148.599 422.856ZM141.399 441.576C141.399 444.84 142.239 446.472 143.919 446.472C147.423 446.472 150.327 441.984 152.631 433.008V431.64C151.815 428.664 150.303 427.176 148.095 427.176C147.231 427.176 146.799 427.776 146.799 428.976C146.799 429.792 145.839 430.44 143.919 430.92C142.239 433.752 141.399 437.304 141.399 441.576ZM171.733 422.352C173.941 422.352 175.045 423.408 175.045 425.52C175.333 425.52 175.477 425.88 175.477 426.6H175.765L175.477 428.688L175.765 443.232L175.333 454.752C179.653 454.752 182.557 457.92 184.045 464.256C184.045 465.552 183.157 466.296 181.381 466.488C180.565 466.488 179.653 464.688 178.645 461.088C177.685 459.696 176.581 459 175.333 459H175.045C173.509 469.224 172.165 474.336 171.013 474.336C169.621 476.88 167.605 478.152 164.965 478.152C161.077 477.24 159.133 475.296 159.133 472.32V471.888C159.133 467.376 162.349 462.48 168.781 457.2L171.013 455.832L171.301 448.056V446.256H171.013C169.381 448.32 167.821 449.352 166.333 449.352H165.901C162.589 449.352 160.693 446.808 160.213 441.72V440.136C160.213 433.992 162.469 428.664 166.981 424.152C168.373 422.952 169.957 422.352 171.733 422.352ZM164.533 439.2V442.656C164.725 444.24 165.085 445.032 165.613 445.032H166.333C167.677 445.032 169.333 440.088 171.301 430.2V426.6C168.421 426.6 166.165 430.8 164.533 439.2ZM163.381 472.032C163.573 473.232 164.245 473.832 165.397 473.832C167.701 473.832 169.357 469.728 170.365 461.52H169.933C165.565 465.312 163.381 468.816 163.381 472.032ZM191.068 422.856C194.62 422.856 197.308 425.496 199.132 430.776L199.42 432.288C199.42 437.424 197.02 442.68 192.22 448.056C190.3 449.832 188.356 450.72 186.388 450.72C183.508 450.72 181.468 449.064 180.268 445.752C179.836 444.216 179.62 442.872 179.62 441.72V440.856C179.62 433.272 182.38 427.512 187.9 423.576C188.86 423.096 189.916 422.856 191.068 422.856ZM183.868 441.576C183.868 444.84 184.708 446.472 186.388 446.472C189.892 446.472 192.796 441.984 195.1 433.008V431.64C194.284 428.664 192.772 427.176 190.564 427.176C189.7 427.176 189.268 427.776 189.268 428.976C189.268 429.792 188.308 430.44 186.388 430.92C184.708 433.752 183.868 437.304 183.868 441.576ZM205.49 428.328L206.786 427.608C207.938 427.608 208.778 428.304 209.306 429.696C208.538 433.248 208.154 436.896 208.154 440.64C208.154 442.512 208.706 444.552 209.81 446.76H210.242C211.634 446.76 213.29 441.264 215.21 430.272C215.882 429.696 216.53 429.408 217.154 429.408C218.642 429.408 219.386 432.048 219.386 437.328C220.01 443.136 220.706 446.04 221.474 446.04L222.554 445.608C223.946 446.136 224.642 446.88 224.642 447.84C223.778 449.664 222.578 450.576 221.042 450.576C219.314 450.576 217.658 448.848 216.074 445.392C214.154 449.424 212.21 451.44 210.242 451.44C207.314 451.44 205.274 448.392 204.122 442.296L203.906 439.992V439.272C203.906 435.432 204.434 431.784 205.49 428.328ZM234.661 406.296C236.005 406.584 236.677 407.256 236.677 408.312L236.245 411.48V412.416C236.245 414.528 236.485 416.76 236.965 419.112H237.109C242.677 417.432 246.133 416.592 247.477 416.592C248.869 416.976 249.565 417.672 249.565 418.68C249.565 420.312 247.909 421.128 244.597 421.128L237.109 423.792C237.109 430.272 237.805 439.08 239.197 450.216C238.909 451.512 238.213 452.16 237.109 452.16H236.965C235.285 452.16 234.445 450 234.445 445.68C233.821 442.464 233.293 435.48 232.861 424.728H231.565C227.053 424.44 224.797 423.384 224.797 421.56C224.797 421.032 225.301 420.384 226.309 419.616H227.029L230.341 420.48H232.645L231.997 411.48C231.997 408.024 232.885 406.296 234.661 406.296Z" fill="black"/>
<defs>
<filter id="filter0_d_147_2" x="0" y="336" width="403.075" height="195" filterUnits="userSpaceOnUse" color-interpolation-filters="sRGB">
<feFlood flood-opacity="0" result="BackgroundImageFix"/>
<feColorMatrix in="SourceAlpha" type="matrix" values="0 0 0 0 0 0 0 0 0 0 0 0 0 0 0 0 0 0 127 0" result="hardAlpha"/>
<feOffset dy="4"/>
<feGaussianBlur stdDeviation="2"/>
<feComposite in2="hardAlpha" operator="out"/>
<feColorMatrix type="matrix" values="0 0 0 0 0 0 0 0 0 0 0 0 0 0 0 0 0 0 0.25 0"/>
<feBlend mode="normal" in2="BackgroundImageFix" result="effect1_dropShadow_147_2"/>
<feBlend mode="normal" in="SourceGraphic" in2="effect1_dropShadow_147_2" result="shape"/>
</filter>
</defs>
</svg>
