<svg width="2886" height="1177" viewBox="0 0 2886 1177" fill="none" xmlns="http://www.w3.org/2000/svg">
<path d="M1446 541.38V33.8491L1436.99 36.9964C1395.99 51.327 1352.36 56.5824 1309.13 52.3992L1275.36 49.1325C1257.76 47.4292 1240.5 43.1659 1224.13 36.4772C1185.57 20.724 1142.77 18.6929 1102.89 30.7238L1076.33 38.7362C1033.11 51.7747 986.963 51.4858 943.911 37.9072C911.135 27.5697 876.423 24.8924 842.45 30.0815L789.237 38.2092C753.076 43.7324 716.21 42.5957 680.458 34.8551L575.488 12.1281L456.082 2.07126C439.715 0.692749 423.262 0.66074 406.889 1.97556L305.495 10.1182C288.839 11.4558 272.323 14.1827 256.121 18.2704L175.198 38.6868C132.509 49.4571 87.9715 50.6992 44.748 42.325L1 33.8491V541.38H1446Z" fill="#885631"/>
<path d="M1127.82 149.616C903.623 207.263 816.823 212.777 600.381 119.489C426.472 14.9406 297.904 137.144 297.904 137.144C297.904 137.144 99.1636 207.323 1 164.859V167.271V500.51H1446V169.933C1276.41 178.455 1288.45 95.4778 1127.82 149.616Z" fill="#6F4628" stroke="#593A1E"/>
<path d="M1446 1177V304.539L1436.99 307.686C1395.99 322.017 1352.36 327.272 1309.13 323.089L1275.36 319.822C1257.76 318.119 1240.5 313.856 1224.13 307.167C1185.57 291.414 1142.77 289.383 1102.89 301.414L1076.33 309.426C1033.11 322.465 986.963 322.176 943.911 308.597C911.135 298.26 876.423 295.582 842.45 300.771L789.237 308.899C753.076 314.422 716.21 313.286 680.458 305.545L575.488 282.818L456.082 272.761C439.715 271.383 423.262 271.351 406.889 272.665L305.495 280.808C288.839 282.146 272.323 284.873 256.121 288.96L175.198 309.377C132.509 320.147 87.9715 321.389 44.748 313.015L1 304.539V1177H1446Z" fill="#62381A"/>
<path d="M1445 364.333L1434 36.5L1516 40.4278L1615.47 33.946C1632.78 32.8184 1649.93 29.932 1666.65 25.3315C1705.34 14.6865 1745.99 13.3029 1785.32 21.2927L1818.41 28.0166C1858.71 36.2033 1900.25 36.0194 1940.48 27.4763L1948.88 25.6918C1979.44 19.2004 2010.83 17.5228 2041.9 20.7197L2116.91 28.4351C2141.54 30.9687 2166.39 30.4433 2190.89 26.8707L2312.5 9.13945L2456 1L2606.5 9.13945L2731.6 30.3943C2761.03 35.396 2791.05 35.9748 2820.66 32.1116L2885 23.717V364.333H1445Z" fill="#885631"/>
<path d="M1782 133.886C1901.5 161.008 2072 143.8 2287.69 81.1921C2461 11.027 2589.12 93.0409 2589.12 93.0409C2589.12 93.0409 2787.18 140.14 2885 111.641V113.259V336.905H1445L1438 169.5C1510.5 166.5 1621.92 97.5524 1782 133.886Z" fill="#6F4628" stroke="#593A1E"/>
<path d="M1445 1177L1442.5 304.5L1540.5 262.333L1620.3 224.345C1634.4 217.628 1649.08 212.166 1664.14 208.021C1704.48 196.923 1746.86 195.48 1787.86 203.81L1818.41 210.017C1858.71 218.203 1900.25 218.019 1940.48 209.476L1948.88 207.692C1979.44 201.2 2010.83 199.523 2041.9 202.72L2116.91 210.435C2141.54 212.969 2166.39 212.443 2190.89 208.871L2312.5 191.139L2456 183L2606.5 191.139L2731.6 212.394C2761.03 217.396 2791.05 217.975 2820.66 214.112L2885 205.717L2881 1177H1445Z" fill="#62381A"/>
</svg>
